<svg width="24" height="24" viewBox="0 0 24 24" fill="none" xmlns="http://www.w3.org/2000/svg">
<path d="M18 7.16C17.94 7.15 17.87 7.15 17.81 7.16C16.43 7.11 15.33 5.98 15.33 4.58C15.33 3.15 16.48 2 17.91 2C19.34 2 20.49 3.16 20.49 4.58C20.48 5.98 19.38 7.11 18 7.16Z" stroke="#7028E4" stroke-width="1.5" stroke-linecap="round" stroke-linejoin="round"/>
<path d="M16.9704 14.4402C18.3404 14.6702 19.8504 14.4302 20.9104 13.7202C22.3204 12.7802 22.3204 11.2402 20.9104 10.3002C19.8404 9.59016 18.3104 9.35016 16.9404 9.59016" stroke="#7028E4" stroke-width="1.5" stroke-linecap="round" stroke-linejoin="round"/>
<path d="M5.97041 7.16C6.03041 7.15 6.10041 7.15 6.16041 7.16C7.54041 7.11 8.64041 5.98 8.64041 4.58C8.64041 3.15 7.49041 2 6.06041 2C4.63041 2 3.48041 3.16 3.48041 4.58C3.49041 5.98 4.59041 7.11 5.97041 7.16Z" stroke="#7028E4" stroke-width="1.5" stroke-linecap="round" stroke-linejoin="round"/>
<path d="M7.00043 14.4399C5.63043 14.6699 4.12043 14.4299 3.06043 13.7199C1.65043 12.7799 1.65043 11.2399 3.06043 10.2999C4.13043 9.58992 5.66043 9.34991 7.03043 9.58991" stroke="#7028E4" stroke-width="1.5" stroke-linecap="round" stroke-linejoin="round"/>
<path d="M12.0001 14.6302C11.9401 14.6202 11.8701 14.6202 11.8101 14.6302C10.4301 14.5802 9.33008 13.4502 9.33008 12.0502C9.33008 10.6202 10.4801 9.47021 11.9101 9.47021C13.3401 9.47021 14.4901 10.6302 14.4901 12.0502C14.4801 13.4502 13.3801 14.5902 12.0001 14.6302Z" stroke="#7028E4" stroke-width="1.5" stroke-linecap="round" stroke-linejoin="round"/>
<path d="M9.08973 17.7801C7.67973 18.7201 7.67973 20.2601 9.08973 21.2001C10.6897 22.2701 13.3097 22.2701 14.9097 21.2001C16.3197 20.2601 16.3197 18.7201 14.9097 17.7801C13.3197 16.7201 10.6897 16.7201 9.08973 17.7801Z" stroke="#7028E4" stroke-width="1.5" stroke-linecap="round" stroke-linejoin="round"/>
</svg>
